<mxfile host="65bd71144e">
    <diagram id="gitkCob5rgYNf0Yk1gqh" name="PÃ¡gina-1">
        <mxGraphModel dx="4624" dy="818" grid="1" gridSize="10" guides="1" tooltips="1" connect="1" arrows="1" fold="1" page="1" pageScale="1" pageWidth="3300" pageHeight="4681" math="0" shadow="0">
            <root>
                <mxCell id="0"/>
                <mxCell id="1" parent="0"/>
                <mxCell id="4" value="" style="edgeStyle=none;html=1;" parent="1" source="2" target="3" edge="1">
                    <mxGeometry relative="1" as="geometry"/>
                </mxCell>
                <mxCell id="2" value="INICIO" style="ellipse;whiteSpace=wrap;html=1;fillColor=#60a917;fontColor=#ffffff;strokeColor=#2D7600;" parent="1" vertex="1">
                    <mxGeometry x="600" y="20" width="120" height="40" as="geometry"/>
                </mxCell>
                <mxCell id="6" value="" style="edgeStyle=none;html=1;" parent="1" source="3" target="5" edge="1">
                    <mxGeometry relative="1" as="geometry"/>
                </mxCell>
                <mxCell id="3" value="X,Y" style="shape=parallelogram;perimeter=parallelogramPerimeter;whiteSpace=wrap;html=1;fixedSize=1;fillColor=#a20025;fontColor=#ffffff;strokeColor=#6F0000;" parent="1" vertex="1">
                    <mxGeometry x="600" y="100" width="120" height="40" as="geometry"/>
                </mxCell>
                <mxCell id="8" value="" style="edgeStyle=none;html=1;" parent="1" source="5" edge="1">
                    <mxGeometry relative="1" as="geometry">
                        <mxPoint x="640" y="240" as="targetPoint"/>
                        <Array as="points">
                            <mxPoint x="640" y="220"/>
                        </Array>
                    </mxGeometry>
                </mxCell>
                <mxCell id="18" value="" style="edgeStyle=none;html=1;entryX=0.5;entryY=0;entryDx=0;entryDy=0;" parent="1" source="5" target="17" edge="1">
                    <mxGeometry relative="1" as="geometry">
                        <mxPoint x="350" y="280" as="targetPoint"/>
                        <Array as="points">
                            <mxPoint x="420" y="210"/>
                        </Array>
                    </mxGeometry>
                </mxCell>
                <mxCell id="23" value="" style="edgeStyle=none;html=1;" parent="1" source="5" edge="1">
                    <mxGeometry relative="1" as="geometry">
                        <mxPoint x="890" y="250" as="targetPoint"/>
                        <Array as="points">
                            <mxPoint x="890" y="210"/>
                        </Array>
                    </mxGeometry>
                </mxCell>
                <mxCell id="5" value="X==0" style="rhombus;whiteSpace=wrap;html=1;fillColor=#e3c800;fontStyle=0;fontColor=#000000;strokeColor=#B09500;" parent="1" vertex="1">
                    <mxGeometry x="610" y="170" width="80" height="80" as="geometry"/>
                </mxCell>
                <mxCell id="26" value="" style="edgeStyle=none;html=1;entryX=0.608;entryY=-0.08;entryDx=0;entryDy=0;entryPerimeter=0;" parent="1" source="9" target="25" edge="1">
                    <mxGeometry relative="1" as="geometry">
                        <mxPoint x="745" y="310" as="targetPoint"/>
                        <Array as="points">
                            <mxPoint x="760" y="290"/>
                        </Array>
                    </mxGeometry>
                </mxCell>
                <mxCell id="9" value="Y==0" style="rhombus;whiteSpace=wrap;html=1;fillColor=#e3c800;fontColor=#000000;strokeColor=#B09500;" parent="1" vertex="1">
                    <mxGeometry x="850" y="250" width="80" height="80" as="geometry"/>
                </mxCell>
                <mxCell id="12" value="ORIGEN" style="shape=document;whiteSpace=wrap;html=1;boundedLbl=1;fillColor=#0050ef;fontColor=#ffffff;strokeColor=#001DBC;" parent="1" vertex="1">
                    <mxGeometry x="1060" y="330" width="90" height="60" as="geometry"/>
                </mxCell>
                <mxCell id="28" value="" style="edgeStyle=none;html=1;" parent="1" source="17" target="19" edge="1">
                    <mxGeometry relative="1" as="geometry">
                        <Array as="points">
                            <mxPoint x="580" y="320"/>
                        </Array>
                    </mxGeometry>
                </mxCell>
                <mxCell id="30" value="" style="edgeStyle=none;html=1;" parent="1" source="17" target="29" edge="1">
                    <mxGeometry relative="1" as="geometry">
                        <Array as="points">
                            <mxPoint x="240" y="320"/>
                        </Array>
                    </mxGeometry>
                </mxCell>
                <mxCell id="17" value="Y==0" style="rhombus;whiteSpace=wrap;html=1;fillColor=#e3c800;fontColor=#000000;strokeColor=#B09500;" parent="1" vertex="1">
                    <mxGeometry x="380" y="280" width="80" height="80" as="geometry"/>
                </mxCell>
                <mxCell id="19" value="Eje X" style="shape=document;whiteSpace=wrap;html=1;boundedLbl=1;fillColor=#0050ef;fontColor=#ffffff;strokeColor=#001DBC;" parent="1" vertex="1">
                    <mxGeometry x="530" y="350" width="100" height="60" as="geometry"/>
                </mxCell>
                <mxCell id="24" value="" style="endArrow=none;html=1;entryX=0.5;entryY=0;entryDx=0;entryDy=0;exitX=1;exitY=0.5;exitDx=0;exitDy=0;" parent="1" source="9" target="12" edge="1">
                    <mxGeometry width="50" height="50" relative="1" as="geometry">
                        <mxPoint x="630" y="470" as="sourcePoint"/>
                        <mxPoint x="680" y="420" as="targetPoint"/>
                        <Array as="points">
                            <mxPoint x="1105" y="290"/>
                        </Array>
                    </mxGeometry>
                </mxCell>
                <mxCell id="25" value="Eje Y" style="shape=document;whiteSpace=wrap;html=1;boundedLbl=1;fillColor=#0050ef;fontColor=#ffffff;strokeColor=#001DBC;" parent="1" vertex="1">
                    <mxGeometry x="690" y="320" width="110" height="50" as="geometry"/>
                </mxCell>
                <mxCell id="27" value="" style="endArrow=none;html=1;exitX=0.695;exitY=0.79;exitDx=0;exitDy=0;exitPerimeter=0;" parent="1" source="12" target="25" edge="1">
                    <mxGeometry width="50" height="50" relative="1" as="geometry">
                        <mxPoint x="1120" y="400" as="sourcePoint"/>
                        <mxPoint x="690" y="420" as="targetPoint"/>
                        <Array as="points">
                            <mxPoint x="1120" y="430"/>
                            <mxPoint x="740" y="430"/>
                        </Array>
                    </mxGeometry>
                </mxCell>
                <mxCell id="32" value="" style="edgeStyle=none;html=1;entryX=0.5;entryY=0;entryDx=0;entryDy=0;" parent="1" source="29" target="33" edge="1">
                    <mxGeometry relative="1" as="geometry">
                        <mxPoint x="360" y="440" as="targetPoint"/>
                        <Array as="points">
                            <mxPoint x="420" y="400"/>
                        </Array>
                    </mxGeometry>
                </mxCell>
                <mxCell id="42" value="" style="edgeStyle=none;html=1;entryX=0.5;entryY=0;entryDx=0;entryDy=0;" parent="1" source="29" edge="1" target="43">
                    <mxGeometry relative="1" as="geometry">
                        <mxPoint x="120" y="440" as="targetPoint"/>
                        <Array as="points">
                            <mxPoint x="80" y="400"/>
                        </Array>
                    </mxGeometry>
                </mxCell>
                <mxCell id="29" value="X&amp;gt;0" style="rhombus;whiteSpace=wrap;html=1;fillColor=#e3c800;fontColor=#000000;strokeColor=#B09500;" parent="1" vertex="1">
                    <mxGeometry x="200" y="360" width="80" height="80" as="geometry"/>
                </mxCell>
                <mxCell id="35" value="" style="edgeStyle=none;html=1;" parent="1" source="33" target="34" edge="1">
                    <mxGeometry relative="1" as="geometry">
                        <Array as="points">
                            <mxPoint x="530" y="480"/>
                        </Array>
                    </mxGeometry>
                </mxCell>
                <mxCell id="33" value="Y&amp;gt;0" style="rhombus;whiteSpace=wrap;html=1;fillColor=#e3c800;fontColor=#000000;strokeColor=#B09500;" parent="1" vertex="1">
                    <mxGeometry x="380" y="440" width="80" height="80" as="geometry"/>
                </mxCell>
                <mxCell id="34" value="CUADRANTE&amp;nbsp; 1" style="shape=document;whiteSpace=wrap;html=1;boundedLbl=1;size=0.375;fillColor=#0050ef;fontColor=#ffffff;strokeColor=#001DBC;" parent="1" vertex="1">
                    <mxGeometry x="470" y="530" width="120" height="70" as="geometry"/>
                </mxCell>
                <mxCell id="36" value="CUADRANTE 4" style="shape=document;whiteSpace=wrap;html=1;boundedLbl=1;fillColor=#0050ef;fontColor=#ffffff;strokeColor=#001DBC;" parent="1" vertex="1">
                    <mxGeometry x="250" y="540" width="120" height="60" as="geometry"/>
                </mxCell>
                <mxCell id="38" style="edgeStyle=none;html=1;exitX=0.5;exitY=0;exitDx=0;exitDy=0;entryX=1;entryY=0;entryDx=0;entryDy=0;" parent="1" source="29" target="29" edge="1">
                    <mxGeometry relative="1" as="geometry"/>
                </mxCell>
                <mxCell id="39" value="" style="edgeStyle=none;html=1;endArrow=none;entryX=0;entryY=0.5;entryDx=0;entryDy=0;exitX=0.5;exitY=0;exitDx=0;exitDy=0;" parent="1" source="36" target="33" edge="1">
                    <mxGeometry relative="1" as="geometry">
                        <mxPoint x="310" y="480" as="sourcePoint"/>
                        <mxPoint x="320" y="491.42857142857133" as="targetPoint"/>
                        <Array as="points">
                            <mxPoint x="310" y="480"/>
                        </Array>
                    </mxGeometry>
                </mxCell>
                <mxCell id="47" value="" style="edgeStyle=none;html=1;entryX=0.75;entryY=0;entryDx=0;entryDy=0;" edge="1" parent="1" source="43" target="44">
                    <mxGeometry relative="1" as="geometry">
                        <mxPoint x="220" y="480" as="targetPoint"/>
                        <Array as="points">
                            <mxPoint x="205" y="480"/>
                        </Array>
                    </mxGeometry>
                </mxCell>
                <mxCell id="49" value="" style="edgeStyle=none;html=1;" edge="1" parent="1" source="43" target="48">
                    <mxGeometry relative="1" as="geometry">
                        <Array as="points">
                            <mxPoint y="480"/>
                        </Array>
                    </mxGeometry>
                </mxCell>
                <mxCell id="43" value="Y&amp;gt;0" style="rhombus;whiteSpace=wrap;html=1;fillColor=#e3c800;fontColor=#000000;strokeColor=#B09500;" parent="1" vertex="1">
                    <mxGeometry x="40" y="440" width="80" height="80" as="geometry"/>
                </mxCell>
                <mxCell id="44" value="CUADRANTE 3" style="shape=document;whiteSpace=wrap;html=1;boundedLbl=1;fillColor=#0050ef;fontColor=#ffffff;strokeColor=#001DBC;" vertex="1" parent="1">
                    <mxGeometry x="130" y="520" width="100" height="60" as="geometry"/>
                </mxCell>
                <mxCell id="48" value="CUADRANTE 2" style="shape=document;whiteSpace=wrap;html=1;boundedLbl=1;fillColor=#0050ef;fontColor=#ffffff;strokeColor=#001DBC;" vertex="1" parent="1">
                    <mxGeometry x="-50" y="520" width="110" height="60" as="geometry"/>
                </mxCell>
                <mxCell id="51" value="" style="endArrow=none;html=1;entryX=0.61;entryY=0.783;entryDx=0;entryDy=0;entryPerimeter=0;" edge="1" parent="1" target="44">
                    <mxGeometry width="50" height="50" relative="1" as="geometry">
                        <mxPoint y="570" as="sourcePoint"/>
                        <mxPoint x="210" y="600" as="targetPoint"/>
                        <Array as="points">
                            <mxPoint y="640"/>
                            <mxPoint x="190" y="640"/>
                        </Array>
                    </mxGeometry>
                </mxCell>
                <mxCell id="52" value="" style="endArrow=none;html=1;exitX=0.567;exitY=0.867;exitDx=0;exitDy=0;exitPerimeter=0;entryX=0.558;entryY=0.771;entryDx=0;entryDy=0;entryPerimeter=0;" edge="1" parent="1" source="36" target="34">
                    <mxGeometry width="50" height="50" relative="1" as="geometry">
                        <mxPoint x="330" y="610" as="sourcePoint"/>
                        <mxPoint x="540" y="610" as="targetPoint"/>
                        <Array as="points">
                            <mxPoint x="320" y="680"/>
                            <mxPoint x="537" y="680"/>
                        </Array>
                    </mxGeometry>
                </mxCell>
                <mxCell id="53" value="" style="endArrow=none;html=1;" edge="1" parent="1">
                    <mxGeometry width="50" height="50" relative="1" as="geometry">
                        <mxPoint x="440" y="840" as="sourcePoint"/>
                        <mxPoint x="440" y="680" as="targetPoint"/>
                    </mxGeometry>
                </mxCell>
                <mxCell id="54" value="" style="endArrow=none;html=1;entryX=0.71;entryY=0.8;entryDx=0;entryDy=0;entryPerimeter=0;" edge="1" parent="1" target="19">
                    <mxGeometry width="50" height="50" relative="1" as="geometry">
                        <mxPoint x="600" y="850" as="sourcePoint"/>
                        <mxPoint x="450" y="510" as="targetPoint"/>
                    </mxGeometry>
                </mxCell>
                <mxCell id="57" value="" style="endArrow=none;html=1;" edge="1" parent="1">
                    <mxGeometry width="50" height="50" relative="1" as="geometry">
                        <mxPoint x="80" y="650" as="sourcePoint"/>
                        <mxPoint x="960" y="430" as="targetPoint"/>
                        <Array as="points">
                            <mxPoint x="80" y="840"/>
                            <mxPoint x="960" y="840"/>
                        </Array>
                    </mxGeometry>
                </mxCell>
                <mxCell id="58" value="" style="endArrow=none;html=1;" edge="1" parent="1">
                    <mxGeometry width="50" height="50" relative="1" as="geometry">
                        <mxPoint x="600" y="850" as="sourcePoint"/>
                        <mxPoint x="600" y="940" as="targetPoint"/>
                    </mxGeometry>
                </mxCell>
                <mxCell id="59" value="FIN" style="ellipse;whiteSpace=wrap;html=1;fillColor=#a20025;fontColor=#ffffff;strokeColor=#6F0000;" vertex="1" parent="1">
                    <mxGeometry x="540" y="930" width="120" height="60" as="geometry"/>
                </mxCell>
            </root>
        </mxGraphModel>
    </diagram>
</mxfile>